<?xml version="1.0" encoding="UTF-8" standalone="no"?>
<svg
   xmlns:dc="http://purl.org/dc/elements/1.1/"
   xmlns:cc="http://creativecommons.org/ns#"
   xmlns:rdf="http://www.w3.org/1999/02/22-rdf-syntax-ns#"
   xmlns:svg="http://www.w3.org/2000/svg"
   xmlns="http://www.w3.org/2000/svg"
   xmlns:xlink="http://www.w3.org/1999/xlink"
   xmlns:sodipodi="http://sodipodi.sourceforge.net/DTD/sodipodi-0.dtd"
   xmlns:inkscape="http://www.inkscape.org/namespaces/inkscape"
   width="385"
   height="100"
   version="1.1"
   id="svg158"
   sodipodi:docname="logo.svg"
   inkscape:version="0.92.4 (unknown)">
  <metadata
     id="metadata162">
    <rdf:RDF>
      <cc:Work
         rdf:about="">
        <dc:format>image/svg+xml</dc:format>
        <dc:type
           rdf:resource="http://purl.org/dc/dcmitype/StillImage" />
        <dc:title />
      </cc:Work>
    </rdf:RDF>
  </metadata>
  <sodipodi:namedview
     pagecolor="#ffffff"
     bordercolor="#666666"
     borderopacity="1"
     objecttolerance="10"
     gridtolerance="10"
     guidetolerance="10"
     inkscape:pageopacity="0"
     inkscape:pageshadow="2"
     inkscape:window-width="1870"
     inkscape:window-height="1016"
     id="namedview160"
     showgrid="false"
     inkscape:zoom="1.8333333"
     inkscape:cx="37.951821"
     inkscape:cy="-45.138555"
     inkscape:window-x="50"
     inkscape:window-y="27"
     inkscape:window-maximized="1"
     inkscape:current-layer="svg158"
     inkscape:snap-text-baseline="false"
     inkscape:snap-bbox="true"
     inkscape:snap-bbox-edge-midpoints="true" />
  <defs
     id="defs4">
    <path
       id="a"
       d="M 0,0 H 1440 V 339 H 0 Z"
       inkscape:connector-curvature="0" />
    <path
       id="c"
       d="M 0.311397,0.83149171 H 4.9914912 V 0.63692265 H 0.311397 Z"
       inkscape:connector-curvature="0" />
    <mask
       fill="#fff"
       id="b">
      <use
         id="use6"
         xlink:href="#a"
         x="0"
         y="0"
         width="100%"
         height="100%" />
    </mask>
  </defs>
  <text
     xml:space="preserve"
     style="font-style:normal;font-weight:normal;font-size:40px;line-height:1.25;font-family:sans-serif;letter-spacing:0px;word-spacing:0px;fill:#333333;fill-opacity:1;stroke:none"
     x="103.97977"
     y="70.634392"
     id="text37"><tspan
       sodipodi:role="line"
       id="tspan35"
       x="103.97977"
       y="70.634392"
       style="font-style:normal;font-variant:normal;font-weight:normal;font-stretch:normal;font-size:56px;font-family:Roboto;-inkscape-font-specification:'Roboto, Normal';font-variant-ligatures:normal;font-variant-caps:normal;font-variant-numeric:normal;font-feature-settings:normal;text-align:start;writing-mode:lr-tb;text-anchor:start;fill:#333333">Flux Docs</tspan></text>
  <g
     transform="matrix(2.0775634,0,0,2.0775634,16.368314,-525.35973)"
     id="g836"
     style="fill:#003380">
    <path
       id="rect815"
       d="m 3.4401,259.47617 c -0.6663028,0 -1.2025105,0.53673 -1.2025105,1.20303 v 32.97835 c 0,0.6663 0.5362077,1.20302 1.2025105,1.20302 h 33.809822 c 0.666303,0 1.20251,-0.53672 1.20251,-1.20302 V 260.6792 c 0,-0.6663 -0.536207,-1.20303 -1.20251,-1.20303 z m 1.3673585,1.43092 H 35.882564 c 0.612407,0 1.10536,0.49347 1.10536,1.10588 v 30.31081 c 0,0.61241 -0.492953,1.10536 -1.10536,1.10536 H 4.8074585 c -0.612408,0 -1.1053591,-0.49295 -1.1053588,-1.10536 v -30.31081 c 0,-0.61241 0.4929508,-1.10588 1.1053588,-1.10588 z"
       style="fill:#003380;fill-opacity:0.99607843;fill-rule:evenodd;stroke-width:0.27462715;stroke-miterlimit:4;stroke-dasharray:none"
       inkscape:connector-curvature="0" />
    <g
       style="fill:#003380"
       transform="matrix(1.1194759,0,0,1.1194759,-2.4307387,-32.818744)"
       id="g1380">
      <circle
         style="fill:#003380;fill-opacity:0.99607843;fill-rule:evenodd;stroke-width:0.30355373;stroke-miterlimit:4;stroke-dasharray:none"
         id="path915"
         cx="20.3486"
         cy="274.93866"
         r="1.434201" />
      <circle
         style="fill:#003380;fill-opacity:0.99607843;fill-rule:evenodd;stroke-width:0.52355373;stroke-miterlimit:4;stroke-dasharray:none"
         id="path915-1-3-2-7-1-2-9"
         cx="286.16144"
         cy="-10.473122"
         r="2.4736357"
         transform="matrix(0.10724036,0.99423312,0.99423312,-0.10724036,0,0)" />
      <path
         inkscape:connector-curvature="0"
         style="fill:#003380;fill-opacity:0.99607843;fill-rule:evenodd;stroke-width:0.30355373;stroke-miterlimit:4;stroke-dasharray:none"
         d="m 16.727693,289.24268 a 5.0602944,5.0602944 0 0 0 7.15602,-0.0607 5.0602944,5.0602944 0 0 0 -0.06032,-7.1556 5.0602944,5.0602944 0 0 0 -7.156026,0.0599 5.0602944,5.0602944 0 0 0 0.06033,7.15644 z m 0.645367,-0.65634 a 4.140241,4.140241 0 0 1 -0.04936,-5.85474 4.140241,4.140241 0 0 1 5.854738,-0.0494 4.140241,4.140241 0 0 1 0.04936,5.85474 4.140241,4.140241 0 0 1 -5.854738,0.0494 z"
         id="path833-7-0" />
      <rect
         style="fill:#003380;fill-opacity:0.99607843;fill-rule:evenodd;stroke-width:0.24449761;stroke-miterlimit:4;stroke-dasharray:none"
         id="rect913-9-9-6"
         width="1.1906575"
         height="9.7959452"
         x="19.670921"
         y="276.15063"
         transform="matrix(0.99999999,-1.4774008e-4,3.1907822e-4,0.99999995,0,0)" />
      <path
         inkscape:connector-curvature="0"
         style="fill:#003380;fill-opacity:0.99607843;fill-rule:evenodd;stroke-width:0.30355373;stroke-miterlimit:4;stroke-dasharray:none"
         d="m 34.297209,268.71566 a 5.0602945,5.0602945 0 0 0 -4.488706,-5.5735 5.0602945,5.0602945 0 0 0 -5.573403,4.48814 5.0602945,5.0602945 0 0 0 4.488083,5.574 5.0602945,5.0602945 0 0 0 5.57406,-4.48867 z m -0.915173,-0.0987 a 4.1402411,4.1402411 0 0 1 -4.560177,3.67221 4.1402411,4.1402411 0 0 1 -3.672226,-4.56017 4.1402411,4.1402411 0 0 1 4.560177,-3.67221 4.1402411,4.1402411 0 0 1 3.672226,4.56017 z"
         id="path833-7-0-1" />
      <rect
         style="fill:#003380;fill-opacity:0.99607843;fill-rule:evenodd;stroke-width:0.24449761;stroke-miterlimit:4;stroke-dasharray:none"
         id="rect913-9-9-6-8"
         width="1.1906575"
         height="9.7959461"
         x="-228.90988"
         y="-153.53268"
         transform="matrix(-0.62072662,-0.78402708,0.78392072,-0.62086094,0,0)" />
      <circle
         style="fill:#003380;fill-opacity:0.99607843;fill-rule:evenodd;stroke-width:0.52355373;stroke-miterlimit:4;stroke-dasharray:none"
         id="path915-1-3-2-7-1-2"
         cx="269.76526"
         cy="0.3383525"
         r="2.4736357"
         transform="matrix(0.10724036,0.99423312,0.99423312,-0.10724036,0,0)" />
      <path
         inkscape:connector-curvature="0"
         style="fill:#003380;fill-opacity:0.99607843;fill-rule:evenodd;stroke-width:0.30355373;stroke-miterlimit:4;stroke-dasharray:none"
         d="m 6.3928129,268.73166 a 5.0602945,5.0602945 0 0 1 4.4887061,-5.5735 5.0602945,5.0602945 0 0 1 5.573403,4.48814 5.0602945,5.0602945 0 0 1 -4.488083,5.574 5.0602945,5.0602945 0 0 1 -5.5740595,-4.48867 z m 0.9151732,-0.0987 a 4.1402411,4.1402411 0 0 0 4.5601769,3.67221 4.1402411,4.1402411 0 0 0 3.672226,-4.56017 4.1402411,4.1402411 0 0 0 -4.560177,-3.67221 4.1402411,4.1402411 0 0 0 -3.6722259,4.56017 z"
         id="path833-7-0-1-3" />
      <rect
         style="fill:#003380;fill-opacity:0.99607843;fill-rule:evenodd;stroke-width:0.24449761;stroke-miterlimit:4;stroke-dasharray:none"
         id="rect913-9-9-6-8-6"
         width="1.1906575"
         height="9.7959461"
         x="-203.65958"
         y="-185.44469"
         transform="matrix(0.62072662,-0.78402708,-0.78392072,-0.62086094,0,0)" />
      <circle
         style="fill:#003380;fill-opacity:0.99607843;fill-rule:evenodd;stroke-width:0.52355373;stroke-miterlimit:4;stroke-dasharray:none"
         id="path915-1-3-2-7-1"
         cx="267.8678"
         cy="-17.402735"
         r="2.4736357"
         transform="matrix(0.10724036,0.99423312,0.99423312,-0.10724036,0,0)" />
    </g>
  </g>
</svg>
